Jump_normalized_pl05_filtered_grf
version=1
nRows=27
nColumns=37
inDegrees=yes
endheader
time		1_ground_force_vx		1_ground_force_vy		1_ground_force_vz		1_ground_force_px		1_ground_force_py		1_ground_force_pz		1_ground_torque_x		1_ground_torque_y		1_ground_torque_z		2_ground_force_vx		2_ground_force_vy		2_ground_force_vz		2_ground_force_px		2_ground_force_py		2_ground_force_pz		2_ground_torque_x		2_ground_torque_y		2_ground_torque_z		3_ground_force_vx		3_ground_force_vy		3_ground_force_vz		3_ground_force_px		3_ground_force_py		3_ground_force_pz		3_ground_torque_x		3_ground_torque_y		3_ground_torque_z		4_ground_force_vx		4_ground_force_vy		4_ground_force_vz		4_ground_force_px		4_ground_force_py		4_ground_force_pz		4_ground_torque_x		4_ground_torque_y		4_ground_torque_z		
0.272000		-0.000000		0.000000		0.000000		0.142679		0.000000		0.180650		0.000000		0.000000		-0.000000		0.000000		0.000000		0.000000		-0.199375		0.000000		0.211348		0.000000		-0.000000		0.000000		-80.336535		593.720294		68.185396		0.412916		1.261740		1.875280		3.265292		-24.131858		-2.771407		103.656733		615.578641		49.488092		-0.354835		1.255122		1.902295		5.006806		29.733553		2.390364		
0.274929		-0.000000		-0.000000		-0.000000		0.142679		0.000000		0.180650		-0.000000		-0.000000		0.000000		0.000000		-0.000000		0.000000		-0.199375		0.000000		0.211348		-0.000000		-0.000000		-0.000000		-81.295432		596.583152		66.568139		0.412897		1.261743		1.875321		3.306021		-24.261095		-2.707110		104.506172		619.147741		48.334130		-0.354842		1.255114		1.902312		5.057649		29.964086		2.339163		
0.277859		-0.000000		-0.000000		-0.000000		0.142679		0.000000		0.180650		-0.000000		-0.000000		0.000000		0.000000		-0.000000		-0.000000		-0.199375		0.000000		0.211348		-0.000000		0.000000		-0.000000		-82.257888		599.187819		65.025792		0.412883		1.261747		1.875356		3.346924		-24.379865		-2.645781		105.360845		622.563374		47.107105		-0.354850		1.255111		1.902325		5.108892		30.187772		2.284198		
0.280788		-0.000000		-0.000000		-0.000000		0.142679		0.000000		0.180650		-0.000000		-0.000000		0.000000		0.000000		-0.000000		-0.000000		-0.199375		0.000000		0.211348		-0.000000		0.000000		-0.000000		-83.213726		601.551963		63.577580		0.412871		1.261752		1.875387		3.387552		-24.488605		-2.588182		106.226309		625.799438		45.813136		-0.354857		1.255112		1.902336		5.160657		30.402412		2.225680		
0.283717		-0.000000		-0.000000		-0.000000		0.142679		0.000000		0.180650		-0.000000		-0.000000		0.000000		-0.000000		-0.000000		-0.000000		-0.199375		0.000000		0.211348		-0.000000		0.000000		-0.000000		-84.154843		603.701626		62.239087		0.412865		1.261757		1.875415		3.427468		-24.587626		-2.534880		107.106885		628.839968		44.465488		-0.354865		1.255116		1.902346		5.213012		30.606343		2.164184		
0.286646		0.000000		-0.000000		-0.000000		0.142679		0.000000		0.180650		-0.000000		-0.000000		0.000000		-0.000000		-0.000000		-0.000000		-0.199375		0.000000		0.211348		-0.000000		0.000000		-0.000000		-85.077007		605.670631		61.018679		0.412862		1.261764		1.875442		3.466350		-24.677250		-2.486125		108.005997		631.680768		43.082999		-0.354873		1.255124		1.902357		5.265987		30.798495		2.100572		
0.289576		0.000000		-0.000000		-0.000000		0.142679		0.000000		0.180650		-0.000000		-0.000000		0.000000		-0.000000		-0.000000		-0.000000		-0.199375		0.000000		0.211348		-0.000000		0.000000		-0.000000		-85.981074		607.499429		59.916134		0.412862		1.261772		1.875471		3.504078		-24.758072		-2.441826		108.926832		634.329388		41.686996		-0.354882		1.255133		1.902369		5.319605		30.978424		2.035846		
0.292505		0.000000		-0.000000		-0.000000		0.142679		0.000000		0.180650		-0.000000		-0.000000		0.000000		-0.000000		-0.000000		-0.000000		-0.199375		0.000000		0.211348		-0.000000		0.000000		-0.000000		-86.873201		609.233501		58.923382		0.412867		1.261782		1.875503		3.540795		-24.831258		-2.401611		109.873060		636.803281		40.297837		-0.354891		1.255144		1.902386		5.373930		31.146278		1.970982		
0.295434		0.000000		-0.000000		-0.000000		0.142679		0.000000		0.180650		-0.000000		-0.000000		0.000000		-0.000000		-0.000000		-0.000000		-0.199375		0.000000		0.211348		-0.000000		0.000000		-0.000000		-87.763860		610.921495		58.027142		0.412875		1.261792		1.875538		3.576913		-24.898777		-2.364960		110.849376		639.125990		38.935213		-0.354901		1.255155		1.902407		5.429108		31.302690		1.906943		
0.298364		0.000000		0.000000		0.000000		0.142679		0.000000		0.180650		-0.000000		-0.000000		-0.000000		-0.000000		0.000000		-0.000000		-0.199375		0.000000		0.211348		-0.000000		0.000000		0.000000		-88.664840		612.614483		57.200424		0.412885		1.261801		1.875577		3.613028		-24.963600		-2.330877		111.861557		641.325887		37.601761		-0.354911		1.255166		1.902434		5.485386		31.448876		1.843888		
0.301293		0.000000		0.000000		0.000000		0.142679		0.000000		0.180650		0.000000		0.000000		-0.000000		-0.000000		0.000000		0.000000		-0.199375		0.000000		0.211348		0.000000		0.000000		0.000000		-89.586600		614.361666		56.415416		0.412899		1.261811		1.875617		3.649815		-25.029484		-2.298399		112.915609		643.430316		36.294160		-0.354920		1.255177		1.902466		5.543099		31.586399		1.781703		
0.304222		0.000000		0.000000		0.000000		0.142679		0.000000		0.180650		0.000000		0.000000		-0.000000		-0.000000		0.000000		0.000000		-0.199375		0.000000		0.211348		0.000000		-0.000000		0.000000		-90.534801		616.208591		55.637759		0.412913		1.261817		1.875658		3.687855		-25.100715		-2.266355		114.017001		645.463712		34.998503		-0.354929		1.255187		1.902504		5.602632		31.717160		1.719776		
0.307152		0.000000		0.000000		0.000000		0.142679		0.000000		0.180650		0.000000		0.000000		-0.000000		0.000000		0.000000		0.000000		-0.199375		0.000000		0.211348		0.000000		-0.000000		0.000000		-91.507845		618.194506		54.825564		0.412929		1.261822		1.875697		3.727501		-25.181674		-2.233277		115.169636		647.445718		33.691237		-0.354938		1.255197		1.902546		5.664388		31.843322		1.657035		
0.310081		-0.000000		0.000000		0.000000		0.142679		0.000000		0.180650		0.000000		0.000000		-0.000000		0.000000		0.000000		0.000000		-0.199375		0.000000		0.211348		0.000000		-0.000000		0.000000		-92.495747		620.350309		53.927252		0.412945		1.261822		1.875732		3.768770		-25.276384		-2.197284		116.374992		649.389977		32.340833		-0.354946		1.255206		1.902593		5.728734		31.967197		1.592026		
0.313010		-0.000000		0.000000		0.000000		0.142679		0.000000		0.180650		0.000000		0.000000		-0.000000		0.000000		0.000000		0.000000		-0.199375		0.000000		0.211348		0.000000		-0.000000		0.000000		-93.480626		622.697529		52.879360		0.412961		1.261816		1.875760		3.811320		-25.388145		-2.155956		117.631587		651.303656		30.908574		-0.354955		1.255215		1.902645		5.795951		32.091072		1.522929		
0.315939		-0.000000		0.000000		0.000000		0.142679		0.000000		0.180650		0.000000		0.000000		-0.000000		0.000000		0.000000		0.000000		-0.199375		0.000000		0.211348		0.000000		-0.000000		0.000000		-94.438925		625.246589		51.635214		0.412976		1.261804		1.875781		3.854508		-25.519331		-2.107482		118.934865		653.186979		29.356876		-0.354965		1.255224		1.902699		5.866196		32.216987		1.447962		
0.318869		-0.000000		0.000000		0.000000		0.142679		0.000000		0.180650		0.000000		0.000000		-0.000000		0.000000		0.000000		0.000000		-0.199375		0.000000		0.211348		0.000000		-0.000000		0.000000		-95.344754		627.997696		50.146475		0.412987		1.261787		1.875795		3.897497		-25.671247		-2.049884		120.277760		655.033955		27.648944		-0.354975		1.255233		1.902754		5.939477		32.346451		1.365341		
0.321798		-0.000000		0.000000		-0.000000		0.142679		0.000000		0.180650		0.000000		0.000000		-0.000000		0.000000		0.000000		0.000000		-0.199375		0.000000		0.211348		0.000000		-0.000000		-0.000000		-96.173258		630.942855		48.376430		0.412994		1.261764		1.875806		3.939400		-25.844356		-1.981569		121.651955		656.832815		25.751196		-0.354988		1.255241		1.902811		6.015662		32.480231		1.273390		
0.324727		-0.000000		-0.000000		-0.000000		0.142679		0.000000		0.180650		-0.000000		-0.000000		0.000000		0.000000		-0.000000		-0.000000		-0.199375		0.000000		0.211348		-0.000000		-0.000000		-0.000000		-96.903414		634.066482		46.304349		0.412995		1.261738		1.875814		3.979405		-26.038371		-1.901518		123.048642		658.566932		23.635778		-0.355003		1.255248		1.902869		6.094487		32.618218		1.170657		
0.327657		-0.000000		-0.000000		-0.000000		0.142679		0.000000		0.180650		-0.000000		-0.000000		0.000000		0.000000		-0.000000		-0.000000		-0.199375		0.000000		0.211348		-0.000000		0.000000		-0.000000		-97.520262		637.345919		43.926931		0.412988		1.261708		1.875825		4.016875		-26.252382		-1.809355		124.459089		660.215786		21.281650		-0.355020		1.255255		1.902925		6.175563		32.759387		1.055978		
0.330586		-0.000000		-0.000000		-0.000000		0.142679		0.000000		0.180650		-0.000000		-0.000000		0.000000		-0.000000		-0.000000		-0.000000		-0.199375		0.000000		0.211348		-0.000000		0.000000		-0.000000		-98.016830		640.751352		41.262591		0.412972		1.261679		1.875841		4.051445		-26.484932		-1.705554		125.874756		661.755607		18.679333		-0.355038		1.255260		1.902982		6.258378		32.901884		0.928718		
0.333515		0.000000		-0.000000		-0.000000		0.142679		0.000000		0.180650		-0.000000		-0.000000		0.000000		-0.000000		-0.000000		-0.000000		-0.199375		0.000000		0.211348		-0.000000		0.000000		-0.000000		-98.395525		644.246574		38.339253		0.412948		1.261652		1.875865		4.083090		-26.734112		-1.590952		127.286799		663.159741		15.833100		-0.355056		1.255264		1.903037		6.342307		33.043194		0.788914		
0.336444		0.000000		-0.000000		-0.000000		0.142679		0.000000		0.180650		-0.000000		-0.000000		0.000000		-0.000000		-0.000000		-0.000000		-0.199375		0.000000		0.211348		-0.000000		0.000000		-0.000000		-98.667079		647.789579		35.186247		0.412916		1.261627		1.875899		4.112104		-26.997636		-1.466440		128.684949		664.398098		12.754431		-0.355075		1.255268		1.903091		6.426588		33.180358		0.636962		
0.339374		0.000000		-0.000000		-0.000000		0.142679		0.000000		0.180650		-0.000000		-0.000000		0.000000		-0.000000		-0.000000		-0.000000		-0.199375		0.000000		0.211348		-0.000000		0.000000		-0.000000		-98.850569		651.333027		31.834887		0.412878		1.261607		1.875944		4.139085		-27.272707		-1.332991		130.056592		665.438037		9.465812		-0.355091		1.255270		1.903145		6.510323		33.310237		0.473834		
0.342303		0.000000		-0.000000		-0.000000		0.142679		0.000000		0.180650		-0.000000		-0.000000		0.000000		-0.000000		-0.000000		-0.000000		-0.199375		0.000000		0.211348		-0.000000		0.000000		-0.000000		-98.970619		654.827238		28.312894		0.412836		1.261590		1.875999		4.164842		-27.556181		-1.191446		131.386014		666.242850		5.997430		-0.355106		1.255272		1.903198		6.592490		33.429729		0.300927		
0.345232		0.000000		-0.000000		-0.000000		0.142679		0.000000		0.180650		-0.000000		-0.000000		0.000000		-0.000000		-0.000000		-0.000000		-0.199375		0.000000		0.211348		-0.000000		0.000000		-0.000000		-99.054798		658.222970		24.649147		0.412794		1.261579		1.876063		4.190290		-27.844644		-1.042721		132.654154		666.771334		2.386392		-0.355118		1.255275		1.903252		6.671972		33.535921		0.120023		
0.348162		0.000000		0.000000		0.000000		0.142679		0.000000		0.180650		0.000000		0.000000		-0.000000		-0.000000		0.000000		0.000000		-0.199375		0.000000		0.211348		0.000000		0.000000		0.000000		-99.130989		661.475364		20.858921		0.412756		1.261572		1.876134		4.216345		-28.134579		-0.887188		133.838968		666.978072		-1.327710		-0.355126		1.255279		1.903307		6.747590		33.626183		-0.066940		
